<svg width="125" height="33" viewBox="0 0 125 33" fill="none" xmlns="http://www.w3.org/2000/svg">
<g filter="url(#filter0_d)">
<path fill-rule="evenodd" clip-rule="evenodd" d="M85.923 15.7478C84.229 15.3233 84.229 15.3057 84.229 14.4036C84.229 13.796 84.2909 13.506 85.6862 13.506C86.6443 13.506 88.0542 13.6652 88.9613 13.819C89.0852 13.8367 89.2127 13.8102 89.3147 13.7306C89.4167 13.6599 89.4823 13.5449 89.4969 13.4211L89.7555 11.4003C89.7738 11.1704 89.628 10.9581 89.3912 10.9051C88.3347 10.6698 86.8775 10.516 85.6753 10.516C81.4675 10.516 80.6114 12.0547 80.6114 14.3665C80.6114 16.9072 81.0941 17.7624 84.3128 18.523C86.4331 19.0182 86.4331 19.3852 86.4331 19.9954C86.4331 20.7967 86.3602 21.0744 84.9758 21.0744C83.8574 21.0744 82.5641 20.9063 81.4275 20.6109C81.3 20.5809 81.1724 20.6003 81.0632 20.664C80.9539 20.733 80.8755 20.8409 80.8519 20.9647L80.5039 22.8935C80.4621 23.1146 80.595 23.3312 80.8136 23.4002C82.0559 23.7893 83.8374 24.0546 85.1452 24.0546C89.2145 24.0546 90.0452 22.392 90.0452 19.9158C90.0452 17.1743 89.5461 16.6614 85.9176 15.7293L85.923 15.747V15.7478ZM75.3708 15.7478C73.6768 15.3233 73.6768 15.3057 73.6768 14.4036C73.6768 13.796 73.7387 13.506 75.134 13.506C76.0904 13.506 77.502 13.6652 78.4092 13.819C78.533 13.8367 78.6605 13.8102 78.7626 13.7306C78.8646 13.6599 78.9301 13.5449 78.9447 13.4211L79.2034 11.4003C79.2325 11.1704 79.0795 10.9581 78.8482 10.9051C77.8099 10.6698 76.3527 10.516 75.1504 10.516C70.9536 10.516 70.0866 12.0547 70.0866 14.3665C70.0866 16.9072 70.5784 17.7624 73.7952 18.523C75.9155 19.0182 75.9155 19.3852 75.9155 19.9954C75.9155 20.7967 75.8426 21.0744 74.4583 21.0744C73.338 21.0744 72.0447 20.9063 70.9063 20.6109C70.7787 20.5809 70.6512 20.6003 70.5419 20.664C70.4327 20.733 70.3543 20.8409 70.3307 20.9647L69.9663 22.8838C69.9299 23.1048 70.0574 23.3224 70.2815 23.3914C71.5201 23.7805 73.3016 24.0458 74.6113 24.0458C78.6733 24.0458 79.5112 22.3832 79.5112 19.907C79.5112 17.1655 79.0048 16.6525 75.3763 15.7204L75.3708 15.7381V15.7478ZM38.0202 6.45673C37.9601 6.26924 37.7834 6.1419 37.5794 6.1419H33.2651C33.0647 6.1419 32.8826 6.26836 32.8225 6.45408L27.3788 23.203C27.3369 23.3357 27.3606 23.486 27.448 23.601C27.5354 23.7159 27.6739 23.784 27.8214 23.784H30.7905C30.9964 23.784 31.1767 23.6514 31.235 23.4657L34.9846 11.1377C34.9846 11.1377 35.0848 10.8281 35.4218 10.8281C35.7679 10.8281 35.859 11.1465 35.859 11.1465L37.5985 16.9921H35.267C35.0666 16.9921 34.8844 17.1274 34.8298 17.3193L34.1558 19.6364C34.1194 19.769 34.1558 19.9194 34.2287 20.0255C34.3198 20.1378 34.4655 20.2024 34.6112 20.2024H38.5913L39.6386 23.4683C39.6969 23.654 39.8755 23.7814 40.0758 23.7814H43.0449C43.1906 23.7814 43.3327 23.7106 43.4202 23.5957C43.5112 23.4789 43.5367 23.3304 43.493 23.1942L38.0439 6.42666L38.0257 6.45496L38.0202 6.45673ZM94.7611 10.7848H92.0288C91.7738 10.7848 91.568 10.9855 91.568 11.2332V23.3666C91.568 23.6142 91.7756 23.8194 92.0306 23.8194H94.7629C95.018 23.8194 95.2247 23.6187 95.2247 23.3684V11.2376C95.2247 10.99 95.0243 10.7928 94.7693 10.7928L94.7602 10.7857L94.7611 10.7848ZM56.017 5.81468H53.2847C53.0297 5.81468 52.8239 6.01543 52.8239 6.26305V23.3666C52.8239 23.6142 53.0315 23.8194 53.2865 23.8194H56.0188C56.2738 23.8194 56.4797 23.6187 56.4797 23.3684V6.26748C56.4797 6.01985 56.2793 5.82264 56.0243 5.82264L56.017 5.81557V5.81468ZM117.439 10.5239C115.996 10.5239 114.024 11.0085 112.357 11.7691L112.157 11.1147C112.102 10.9201 111.92 10.7919 111.715 10.7919H109.693C109.438 10.7919 109.229 10.9926 109.229 11.2402V23.3737C109.229 23.6213 109.429 23.8247 109.684 23.8247H112.416C112.671 23.8247 112.881 23.6248 112.881 23.3737V14.9722C113.865 14.4859 115.249 13.9818 116.071 13.9818C116.687 13.9818 116.915 14.2064 116.915 14.8042V23.3648C116.915 23.616 117.124 23.8159 117.379 23.8159H120.111C120.366 23.8159 120.572 23.616 120.572 23.3648V14.4567C120.572 11.8522 119.516 10.5301 117.437 10.5301H117.436L117.439 10.5239ZM14.1672 17.7377C14.0943 17.6669 13.9905 17.5917 13.812 17.5917C13.5843 17.5917 13.4513 17.7438 13.4003 17.8181C12.1252 19.7107 11.4695 21.4971 11.3784 23.2923C11.3757 23.425 11.4267 23.5576 11.5196 23.6549C11.6106 23.761 11.7473 23.8141 11.8839 23.8141H14.9113C15.1754 23.8141 15.394 23.6195 15.4122 23.3719C15.4851 22.5052 15.7583 21.6386 16.2683 20.7365C16.4414 20.4182 16.3047 20.1263 16.2046 19.9998C15.7036 19.3631 15.0907 18.691 14.1799 17.766L14.1763 17.7483L14.1672 17.7377ZM64.8761 19.0288V20.5915C64.4298 20.8391 63.6101 21.1752 62.6174 21.1752C61.7703 21.1752 61.5062 20.9275 61.5062 20.0962C61.5062 19.3003 61.6702 19.0492 62.672 19.0492H64.8761V19.0297V19.0288ZM103.693 19.0288V20.5915C103.238 20.8391 102.418 21.1752 101.434 21.1752C100.587 21.1752 100.323 20.9275 100.323 20.0962C100.323 19.3003 100.487 19.0492 101.489 19.0492H103.693V19.0297V19.0288ZM50.9686 21.2265C50.9504 21.0991 50.8775 20.9877 50.7682 20.9169C50.659 20.8462 50.5296 20.825 50.4021 20.855C49.9103 20.9718 49.4549 21.0354 49.0906 21.0354C48.4166 21.0354 48.107 20.7524 48.107 20.1157V13.6864H50.7573C51.0123 13.6864 51.22 13.483 51.22 13.2354V11.2279C51.22 10.9802 51.0105 10.7768 50.7555 10.7768H48.1143V7.6913C48.1143 7.55864 48.0523 7.43749 47.9503 7.35082C47.8501 7.26504 47.7135 7.22701 47.586 7.2447L44.8537 7.61613C44.6242 7.64531 44.453 7.83456 44.453 8.05831V10.7821H42.962C42.707 10.7821 42.4994 10.9829 42.4994 11.2305V13.2469C42.4994 13.4945 42.718 13.6997 42.973 13.6997H44.4594V20.5358C44.4594 22.8855 45.729 24.0732 48.2354 24.0732C48.9458 24.0732 50.1589 23.914 50.9495 23.6487C51.159 23.578 51.2883 23.3719 51.2537 23.1535L50.9577 21.2344L50.9668 21.2212L50.9686 21.2265ZM63.0445 10.5301C61.6601 10.5301 59.977 10.7423 58.7548 11.0696C58.518 11.1315 58.3723 11.3481 58.4087 11.5736L58.7238 13.5016C58.742 13.6192 58.8149 13.7253 58.9151 13.7961C59.0171 13.8668 59.1446 13.8845 59.2685 13.8668C60.4033 13.6546 61.5763 13.5307 62.5691 13.5307C64.5363 13.5307 64.8533 13.9375 64.8533 15.2287V16.3607H61.9388C59.1446 16.3607 57.9497 17.475 57.9497 20.1104C57.9497 22.622 59.2612 24.0546 61.5381 24.0546C62.8623 24.0546 64.1848 23.7009 65.2959 23.0465L65.4143 23.4586C65.469 23.6532 65.6511 23.7858 65.8606 23.7858H68.0792C68.3343 23.7858 68.5401 23.5824 68.5401 23.3348V15.2694C68.5401 11.8027 67.0555 10.5115 63.0573 10.5115L63.0409 10.5204L63.0445 10.5301ZM101.855 10.5301C100.471 10.5301 98.7949 10.7423 97.5745 11.0696C97.3468 11.1315 97.2011 11.3481 97.2421 11.5736L97.5608 13.5016C97.579 13.6192 97.6519 13.7253 97.7521 13.7961C97.8559 13.8668 97.9834 13.8845 98.1073 13.8668C99.2366 13.6546 100.402 13.5307 101.404 13.5307C103.372 13.5307 103.681 13.9375 103.681 15.2287V16.3607H100.767C97.9616 16.3607 96.7666 17.475 96.7666 20.1104C96.7666 22.622 98.0754 24.0546 100.355 24.0546C101.678 24.0546 102.996 23.7009 104.107 23.0465L104.226 23.4586C104.28 23.6532 104.463 23.7858 104.672 23.7858H106.876C107.131 23.7858 107.341 23.5824 107.341 23.3348V15.2694C107.341 11.8027 105.856 10.5115 101.858 10.5115L101.862 10.5204L101.855 10.5301ZM26.4498 5.89604C26.3587 5.82972 26.254 5.79611 26.1465 5.79611C26.0737 5.79611 26.019 5.80672 25.9644 5.82795C24.8714 6.22945 23.7785 6.53544 22.7767 6.76006C22.5763 6.81313 22.3978 6.95462 22.3395 7.1315C21.6109 9.07709 19.7347 10.9343 17.7857 12.8622C17.7128 12.9329 17.6035 13.039 17.4214 13.039C17.2392 13.039 17.1299 12.9506 17.057 12.8745C15.0898 10.9378 13.2318 9.09832 12.5032 7.15272C12.4303 6.97585 12.2664 6.83435 12.066 6.78129C11.0642 6.55136 9.95304 6.24183 8.87834 5.84387C8.82369 5.82618 8.75447 5.81733 8.69618 5.81733C8.58689 5.81733 8.48124 5.85271 8.39199 5.91727C8.25355 6.01455 8.18251 6.18258 8.1989 6.34176C8.36284 7.95661 9.0277 9.53431 10.2117 11.1881C11.3319 12.7445 12.7801 14.1861 14.1918 15.578C16.7783 18.1427 19.2283 20.5658 19.4451 23.3781C19.4633 23.6293 19.6819 23.8256 19.9405 23.8256H22.9825C23.1191 23.8256 23.2521 23.7725 23.3468 23.6753C23.4415 23.578 23.4925 23.4489 23.4834 23.3162C23.3869 21.4387 22.6583 19.5577 21.2557 17.5652C20.9642 17.1496 20.6546 16.7427 20.324 16.3448C20.191 16.1856 20.2475 15.9822 20.3495 15.8831L20.6591 15.5789C22.0681 14.1905 23.5189 12.749 24.6392 11.1925C25.8232 9.54315 26.4789 7.97341 26.6474 6.35945C26.6657 6.19584 26.5892 6.02339 26.4544 5.92346L26.4635 5.91019L26.4498 5.89604ZM17.4332 7.3464C18.3868 7.3464 18.9405 7.28714 19.1336 7.28714C19.3522 7.28714 19.589 7.46402 19.589 7.72933C19.589 7.80007 19.5708 7.85314 19.5525 7.9062C19.425 8.23164 18.8421 9.41315 17.7674 10.4266C17.6399 10.5398 17.5124 10.5611 17.4214 10.5611C17.3303 10.5611 17.1846 10.5398 17.0625 10.4266C15.9878 9.41315 15.4122 8.23341 15.2865 7.90266C15.2683 7.8496 15.2501 7.79654 15.2501 7.71694C15.2501 7.46048 15.4741 7.26592 15.7091 7.26592C15.904 7.26592 16.4559 7.31898 17.4104 7.31898H17.4141L17.4323 7.33667L17.4332 7.3464ZM94.7593 5.8191H92.0343C91.7793 5.8191 91.5716 6.01366 91.5716 6.26128V8.596C91.5716 8.84362 91.7793 9.04526 92.0343 9.04526H94.7666C95.0216 9.04526 95.2283 8.8507 95.2283 8.60308V6.24979C95.2283 6.00217 95.0216 5.80318 94.7666 5.80318L94.7593 5.82441V5.8191ZM30.7395 0.24939C30.6184 0.0902049 30.4299 0.00176872 30.2295 0.00176872C30.1266 0.00176872 30.0246 0.0229934 29.938 0.0725177C26.2039 2.05349 21.8805 3.10234 17.4286 3.10411C12.9786 3.10411 8.65429 2.05349 4.92378 0.070749C4.8327 0.0176872 4.73252 3.26815e-09 4.63233 3.26815e-09C4.43196 3.26815e-09 4.2407 0.0884362 4.1223 0.247621C3.94561 0.459868 3.94015 0.848988 4.2407 1.07892C6.10778 2.42315 8.16794 3.48439 10.3611 4.20956C12.638 4.95243 15.0133 5.34155 17.4286 5.34155C19.8458 5.34155 22.2229 4.95243 24.4962 4.20956C26.6912 3.48439 28.7513 2.42315 30.622 1.07892C30.9226 0.848988 30.9135 0.459868 30.7404 0.229934V0.24939H30.7395Z" fill="#5982E7"/>
</g>
<defs>
<filter id="filter0_d" x="0" y="0" width="124.572" height="32.0732" filterUnits="userSpaceOnUse" color-interpolation-filters="sRGB">
<feFlood flood-opacity="0" result="BackgroundImageFix"/>
<feColorMatrix in="SourceAlpha" type="matrix" values="0 0 0 0 0 0 0 0 0 0 0 0 0 0 0 0 0 0 127 0"/>
<feOffset dy="4"/>
<feGaussianBlur stdDeviation="2"/>
<feColorMatrix type="matrix" values="0 0 0 0 0 0 0 0 0 0 0 0 0 0 0 0 0 0 0.25 0"/>
<feBlend mode="normal" in2="BackgroundImageFix" result="effect1_dropShadow"/>
<feBlend mode="normal" in="SourceGraphic" in2="effect1_dropShadow" result="shape"/>
</filter>
</defs>
</svg>
